<svg width="884" height="750" viewBox="0 0 884 750" fill="none" xmlns="http://www.w3.org/2000/svg">
<rect x="20" y="20" width="612" height="710" stroke="#9B9B9B" stroke-width="40"/>
<path d="M154.922 324H271.649V286.77H197.408V170.7H154.922V324ZM417.321 327.066C464.625 327.066 500.103 291.369 500.103 247.35V246.912C500.103 202.893 465.063 167.634 417.759 167.634C370.455 167.634 334.977 203.331 334.977 247.35V247.788C334.977 291.807 370.017 327.066 417.321 327.066ZM417.759 288.741C394.545 288.741 378.558 269.469 378.558 247.35V246.912C378.558 224.793 394.107 205.959 417.321 205.959C440.754 205.959 456.741 225.231 456.741 247.35V247.788C456.741 269.907 441.192 288.741 417.759 288.741Z" fill="#9B9B9B"/>
<path d="M204.715 613.095H244.135L306.331 458.7H259.684L224.863 555.717L190.042 458.7H142.519L204.715 613.095ZM380.302 612H504.694V575.865H422.35V551.556H495.934V518.049H422.35V494.835H503.599V458.7H380.302V612Z" fill="#9B9B9B"/>
<path d="M625.298 379.064C610.962 400.867 596.775 411.768 582.738 411.768C574.748 411.768 565.788 409.789 555.858 405.832C546.002 401.875 536.78 396.984 528.194 391.16C519.607 385.261 511.804 378.915 504.786 372.12C497.767 365.325 492.727 359.128 489.666 353.528C485.634 346.211 485.074 340.312 487.986 335.832C491.495 330.456 499.484 328.253 511.954 329.224C519.644 329.821 528.044 331.128 537.154 333.144C546.338 335.085 556.007 337.661 566.162 340.872C576.316 344.008 585.612 347.107 594.05 350.168C602.487 353.155 612.082 356.701 622.834 360.808C624.402 361.405 625.932 361.405 627.426 360.808C628.994 360.211 630.188 359.165 631.01 357.672C634.22 351.475 637.394 344.717 640.53 337.4C650.311 314.552 658.487 291.181 665.058 267.288C665.431 265.944 666.327 265.235 667.746 265.16C669.164 265.011 670.135 265.608 670.658 266.952C671.18 268.296 671.516 271.469 671.666 276.472C671.89 281.4 672.039 290.509 672.114 303.8C672.338 336.504 673.047 360.621 674.242 376.152C674.316 377.496 674.764 378.691 675.586 379.736C676.407 380.707 677.452 381.416 678.722 381.864C687.234 385.224 696.044 387.277 705.154 388.024C705.9 388.024 706.572 388.323 707.17 388.92C707.767 389.443 708.066 390.115 708.066 390.936C708.14 391.683 707.879 392.355 707.282 392.952C706.759 393.549 706.087 393.848 705.266 393.848C697.052 393.475 689.1 391.832 681.41 388.92C679.991 388.472 678.684 388.771 677.49 389.816C676.37 390.787 675.922 392.019 676.146 393.512C677.415 400.904 678.946 404.936 680.738 405.608C681.484 405.907 682.044 406.429 682.418 407.176C682.791 407.848 682.828 408.557 682.53 409.304C682.306 410.051 681.82 410.611 681.074 410.984C680.402 411.357 679.692 411.432 678.946 411.208C674.615 409.789 671.516 402.248 669.65 388.584C669.276 386.045 667.858 384.328 665.394 383.432C659.57 381.267 651.468 378.168 641.09 374.136C640.492 373.987 639.634 373.8 638.514 373.576C637.394 373.277 636.61 373.091 636.162 373.016C635.714 372.941 635.042 372.867 634.146 372.792C633.324 372.643 632.69 372.643 632.242 372.792C631.868 372.867 631.308 373.053 630.562 373.352C629.89 373.576 629.292 373.949 628.77 374.472C628.322 374.92 627.762 375.555 627.09 376.376C626.492 377.123 625.895 378.019 625.298 379.064ZM506.578 334.824C499.26 334.824 494.706 336.205 492.914 338.968C491.271 341.507 491.906 345.427 494.818 350.728C497.879 356.403 502.882 362.525 509.826 369.096C516.77 375.592 524.348 381.565 532.562 387.016C540.85 392.392 549.548 396.909 558.658 400.568C567.767 404.152 575.794 405.944 582.738 405.944C595.058 405.944 607.826 395.565 621.042 374.808C622.162 373.091 622.386 371.261 621.714 369.32C621.116 367.304 619.847 365.923 617.906 365.176C595.879 356.739 576.092 349.869 558.546 344.568C540.999 339.267 525.319 336.093 511.506 335.048C509.788 334.899 508.146 334.824 506.578 334.824ZM663.938 291.928C656.023 317.165 645.943 341.507 633.698 364.952L638.178 366.744C648.556 370.776 656.06 373.651 660.69 375.368C662.482 376.04 664.162 375.816 665.73 374.696C667.298 373.501 668.007 371.933 667.858 369.992C666.962 355.581 666.402 333.517 666.178 303.8C666.178 298.648 666.14 294.877 666.066 292.488C666.066 291.667 665.916 291.069 665.618 290.696C665.394 290.323 665.095 290.248 664.722 290.472C664.423 290.621 664.162 291.107 663.938 291.928ZM808.64 382.648C809.461 382.648 810.133 382.947 810.656 383.544C811.253 384.141 811.552 384.851 811.552 385.672C811.552 386.419 811.253 387.091 810.656 387.688C803.413 394.707 794.491 400.12 783.888 403.928C773.285 407.661 763.579 409.528 754.768 409.528C750.512 409.752 746.405 408.968 742.448 407.176C740.731 406.205 739.349 405.123 738.304 403.928C737.259 402.733 736.587 401.464 736.288 400.12C735.989 398.701 735.803 397.432 735.728 396.312C735.728 395.192 735.989 393.923 736.512 392.504C737.035 391.011 737.445 389.891 737.744 389.144C738.117 388.323 738.603 387.315 739.2 386.12C739.424 385.672 739.237 385.411 738.64 385.336C738.341 385.336 737.931 385.485 737.408 385.784C733.301 388.024 728.896 389.032 724.192 388.808C722.101 388.883 720.048 388.472 718.032 387.576C717.285 387.8 716.539 387.725 715.792 387.352C714.597 386.755 714.075 385.784 714.224 384.44C713.104 383.096 712.32 381.565 711.872 379.848C710.976 376.787 711.051 373.763 712.096 370.776C713.141 367.789 714.971 365.325 717.584 363.384C720.72 361.517 723.184 361.443 724.976 363.16C727.44 365.475 726.619 371.261 722.512 380.52C722.363 380.893 722.475 381.416 722.848 382.088C723.221 382.685 723.669 382.984 724.192 382.984C728.523 382.984 732.592 381.901 736.4 379.736C737.52 379.064 738.416 378.616 739.088 378.392C739.76 378.093 740.656 377.981 741.776 378.056C742.896 378.056 743.941 378.429 744.912 379.176C745.883 379.923 746.405 380.893 746.48 382.088C746.555 383.283 746.405 384.328 746.032 385.224C745.733 386.045 745.211 387.203 744.464 388.696C742.597 392.131 741.664 394.893 741.664 396.984C741.739 399 743.008 400.717 745.472 402.136C746.965 403.032 749.392 403.555 752.752 403.704C756.112 403.853 760.069 403.555 764.624 402.808C769.179 402.061 773.883 400.941 778.736 399.448C783.589 397.955 788.517 395.827 793.52 393.064C798.523 390.227 802.853 387.016 806.512 383.432C807.109 382.909 807.819 382.648 808.64 382.648ZM717.36 377.384C718.704 374.547 719.749 371.597 720.496 368.536C717.733 370.925 716.688 373.875 717.36 377.384ZM880.803 381.64C881.624 381.64 882.334 381.939 882.931 382.536C883.528 383.059 883.827 383.731 883.827 384.552C883.827 385.373 883.528 386.083 882.931 386.68C882.11 387.576 880.99 388.696 879.571 390.04C878.227 391.309 875.688 393.4 871.955 396.312C868.296 399.224 864.638 401.8 860.979 404.04C857.395 406.28 853.176 408.333 848.323 410.2C843.544 411.992 839.064 412.888 834.883 412.888C831.822 412.888 828.798 412.328 825.811 411.208C819.091 408.669 814.126 403.032 810.915 394.296C807.704 385.56 806.51 374.509 807.331 361.144C807.256 360.547 806.995 360.061 806.547 359.688C806.099 359.315 805.576 359.165 804.979 359.24C801.843 359.464 798.632 359.725 795.347 360.024C792.062 360.248 789.224 360.472 786.835 360.696C784.446 360.845 782.28 360.995 780.339 361.144C778.323 361.219 776.792 361.293 775.747 361.368C774.702 361.443 774.142 361.48 774.067 361.48H773.843C773.022 361.555 772.312 361.331 771.715 360.808C771.118 360.211 770.819 359.501 770.819 358.68C770.819 357.859 771.08 357.149 771.603 356.552C772.126 355.955 772.798 355.656 773.619 355.656C773.694 355.656 774.291 355.619 775.411 355.544C776.531 355.469 778.136 355.357 780.227 355.208C782.243 355.059 784.52 354.909 787.059 354.76C789.523 354.536 792.472 354.312 795.907 354.088C799.342 353.789 802.702 353.528 805.987 353.304C807.331 353.155 808.152 352.109 808.451 350.168C809.123 345.539 809.982 341.021 811.027 336.616C812.147 332.211 813.416 327.992 814.835 323.96C816.254 319.928 817.859 316.605 819.651 313.992C821.518 311.379 823.422 309.885 825.363 309.512C828.35 308.989 830.702 310.483 832.419 313.992C833.539 316.232 833.427 320.675 832.083 327.32C830.739 333.891 828.574 341.357 825.587 349.72C825.363 350.317 825.288 350.803 825.363 351.176C825.512 351.475 825.662 351.699 825.811 351.848C825.96 351.923 826.147 351.96 826.371 351.96C843.47 350.915 855.79 350.392 863.331 350.392C864.152 350.392 864.824 350.691 865.347 351.288C865.944 351.885 866.243 352.595 866.243 353.416C866.243 354.163 865.944 354.835 865.347 355.432C864.824 356.029 864.152 356.328 863.331 356.328C851.683 356.328 838.691 356.888 824.355 358.008C823.683 358.008 823.198 358.083 822.899 358.232C822.675 358.381 822.451 358.717 822.227 359.24C820.36 364.691 817.56 372.12 813.827 381.528C815.694 394.744 820.398 402.808 827.939 405.72C830.104 406.541 832.456 406.952 834.995 406.952C837.534 406.952 839.998 406.616 842.387 405.944C844.851 405.272 847.39 404.339 850.003 403.144C852.691 401.949 855.155 400.68 857.395 399.336C859.635 397.992 861.875 396.499 864.115 394.856C866.43 393.213 868.371 391.757 869.939 390.488C871.582 389.144 873.112 387.8 874.531 386.456C876.024 385.112 877.032 384.179 877.555 383.656C878.152 383.133 878.563 382.76 878.787 382.536C879.31 381.939 879.982 381.64 880.803 381.64ZM814.387 350.056C814.088 351.773 814.35 352.632 815.171 352.632C815.768 352.632 816.366 352.595 816.963 352.52C818.083 352.445 818.755 351.811 818.979 350.616C825.774 330.755 828.499 319.443 827.155 316.68C827.006 316.232 826.707 315.971 826.259 315.896C825.811 315.747 825.438 315.821 825.139 316.12C823.422 317.987 821.48 322.131 819.315 328.552C817.15 334.899 815.507 342.067 814.387 350.056ZM812.931 367.528C813.603 367.528 814.424 366.147 815.395 363.384C816.44 360.621 816.739 358.979 816.291 358.456C815.246 357.933 814.275 358.008 813.379 358.68C813.006 359.053 812.707 359.987 812.483 361.48C812.334 362.899 812.296 364.28 812.371 365.624C812.446 366.893 812.632 367.528 812.931 367.528Z" fill="#70AD47"/>
<path d="M625.298 379.064L628.64 381.262L628.709 381.157L628.771 381.049L625.298 379.064ZM555.858 405.832L554.367 409.544L554.377 409.548L555.858 405.832ZM528.194 391.16L525.929 394.457L525.939 394.464L525.948 394.47L528.194 391.16ZM504.786 372.12L502.004 374.994L504.786 372.12ZM489.666 353.528L493.176 351.609L493.169 351.598L489.666 353.528ZM487.986 335.832L484.636 333.646L484.632 333.652L487.986 335.832ZM511.954 329.224L511.643 333.212L511.644 333.212L511.954 329.224ZM537.154 333.144L536.289 337.049L536.308 337.054L536.326 337.058L537.154 333.144ZM566.162 340.872L564.956 344.686L564.969 344.69L564.981 344.694L566.162 340.872ZM594.05 350.168L592.685 353.928L592.7 353.933L592.715 353.939L594.05 350.168ZM622.834 360.808L621.407 364.545L621.41 364.546L622.834 360.808ZM627.426 360.808L626.002 357.07L625.971 357.082L625.94 357.094L627.426 360.808ZM631.01 357.672L634.515 359.6L634.539 359.556L634.561 359.512L631.01 357.672ZM640.53 337.4L644.206 338.976L644.207 338.974L640.53 337.4ZM665.058 267.288L661.204 266.217L661.201 266.227L665.058 267.288ZM667.746 265.16L667.956 269.154L668.06 269.149L668.165 269.138L667.746 265.16ZM670.658 266.952L666.93 268.402V268.402L670.658 266.952ZM671.666 276.472L667.668 276.591L667.668 276.622L667.67 276.654L671.666 276.472ZM672.114 303.8L668.114 303.822L668.114 303.827L672.114 303.8ZM674.242 376.152L678.236 375.93L678.233 375.888L678.23 375.845L674.242 376.152ZM675.586 379.736L672.44 382.207L672.485 382.264L672.532 382.32L675.586 379.736ZM678.722 381.864L680.19 378.143L680.122 378.116L680.053 378.092L678.722 381.864ZM705.154 388.024L704.827 392.011L704.99 392.024H705.154V388.024ZM707.17 388.92L704.341 391.748L704.436 391.843L704.536 391.93L707.17 388.92ZM708.066 390.936H704.066V391.135L704.086 391.334L708.066 390.936ZM707.282 392.952L704.453 390.124L704.359 390.218L704.271 390.318L707.282 392.952ZM705.266 393.848L705.084 397.844L705.175 397.848H705.266V393.848ZM681.41 388.92L682.826 385.179L682.721 385.139L682.614 385.106L681.41 388.92ZM677.49 389.816L680.109 392.839L680.117 392.833L680.124 392.826L677.49 389.816ZM676.146 393.512L672.19 394.105L672.196 394.147L672.203 394.189L676.146 393.512ZM680.738 405.608L682.223 401.894L682.183 401.878L682.142 401.863L680.738 405.608ZM682.418 407.176L678.84 408.965L678.879 409.043L678.921 409.119L682.418 407.176ZM682.53 409.304L678.816 407.818L678.75 407.984L678.698 408.155L682.53 409.304ZM681.074 410.984L679.285 407.406L679.207 407.445L679.131 407.487L681.074 410.984ZM678.946 411.208L677.701 415.009L677.748 415.025L677.796 415.039L678.946 411.208ZM669.65 388.584L673.613 388.043L673.61 388.022L673.607 388.002L669.65 388.584ZM665.394 383.432L664 387.181L664.013 387.186L664.027 387.191L665.394 383.432ZM641.09 374.136L642.538 370.407L642.304 370.316L642.06 370.255L641.09 374.136ZM638.514 373.576L637.483 377.441L637.605 377.474L637.729 377.498L638.514 373.576ZM636.162 373.016L636.819 369.07L636.819 369.07L636.162 373.016ZM634.146 372.792L633.43 376.727L633.621 376.762L633.814 376.778L634.146 372.792ZM632.242 372.792L633.026 376.714L633.27 376.665L633.507 376.587L632.242 372.792ZM630.562 373.352L631.827 377.147L631.938 377.11L632.047 377.066L630.562 373.352ZM628.77 374.472L631.598 377.3L631.598 377.3L628.77 374.472ZM627.09 376.376L623.994 373.843L623.98 373.86L623.966 373.877L627.09 376.376ZM492.914 338.968L489.558 336.791L489.555 336.795L492.914 338.968ZM494.818 350.728L498.338 348.829L498.331 348.815L498.324 348.802L494.818 350.728ZM509.826 369.096L507.077 372.001L507.085 372.009L507.093 372.017L509.826 369.096ZM532.562 387.016L530.35 390.349L530.367 390.36L530.385 390.372L532.562 387.016ZM558.658 400.568L557.167 404.28L557.18 404.285L557.193 404.29L558.658 400.568ZM621.042 374.808L617.691 372.623L617.679 372.641L617.668 372.66L621.042 374.808ZM621.714 369.32L617.879 370.456L617.904 370.543L617.934 370.628L621.714 369.32ZM617.906 365.176L619.342 361.443L619.337 361.441L617.906 365.176ZM558.546 344.568L557.389 348.397L558.546 344.568ZM511.506 335.048L511.159 339.033L511.182 339.035L511.204 339.037L511.506 335.048ZM663.938 291.928L667.754 293.125L667.777 293.053L667.797 292.98L663.938 291.928ZM633.698 364.952L630.152 363.1L628.104 367.022L632.212 368.666L633.698 364.952ZM638.178 366.744L636.692 370.458L636.711 370.465L636.729 370.473L638.178 366.744ZM660.69 375.368L662.094 371.623L662.088 371.62L662.081 371.618L660.69 375.368ZM665.73 374.696L668.055 377.951L668.105 377.915L668.154 377.878L665.73 374.696ZM667.858 369.992L663.865 370.24L663.867 370.27L663.87 370.299L667.858 369.992ZM666.178 303.8H662.178V303.815L662.178 303.83L666.178 303.8ZM666.066 292.488H662.066V292.55L662.068 292.613L666.066 292.488ZM665.618 290.696L662.188 292.754L662.326 292.985L662.494 293.195L665.618 290.696ZM664.722 290.472L666.511 294.05L666.648 293.981L666.78 293.902L664.722 290.472ZM621.956 376.866C607.747 398.475 594.604 407.768 582.738 407.768V415.768C598.946 415.768 614.176 403.259 628.64 381.262L621.956 376.866ZM582.738 407.768C575.395 407.768 566.948 405.946 557.339 402.116L554.377 409.548C564.629 413.633 574.102 415.768 582.738 415.768V407.768ZM557.348 402.12C547.751 398.267 538.784 393.509 530.439 387.85L525.948 394.47C534.777 400.459 544.252 405.483 554.367 409.544L557.348 402.12ZM530.459 387.863C522.044 382.082 514.416 375.876 507.568 369.246L502.004 374.994C509.193 381.954 517.17 388.44 525.929 394.457L530.459 387.863ZM507.568 369.246C500.702 362.6 495.97 356.721 493.176 351.609L486.156 355.447C489.484 361.535 494.832 368.051 502.004 374.994L507.568 369.246ZM493.169 351.598C489.414 344.784 489.626 340.648 491.34 338.012L484.632 333.652C480.521 339.976 481.853 347.638 486.162 355.458L493.169 351.598ZM491.335 338.018C493.512 334.684 499.29 332.25 511.643 333.212L512.264 325.236C499.679 324.256 489.478 326.228 484.636 333.646L491.335 338.018ZM511.644 333.212C519.114 333.792 527.326 335.066 536.289 337.049L538.018 329.238C528.762 327.19 520.175 325.85 512.263 325.236L511.644 333.212ZM536.326 337.058C545.367 338.969 554.91 341.509 564.956 344.686L567.368 337.058C557.105 333.813 547.308 331.202 537.981 329.23L536.326 337.058ZM564.981 344.694C575.085 347.814 584.319 350.892 592.685 353.928L595.414 346.408C586.906 343.321 577.548 340.202 567.342 337.05L564.981 344.694ZM592.715 353.939C601.114 356.912 610.677 360.447 621.407 364.545L624.261 357.071C613.486 352.956 603.86 349.397 595.385 346.397L592.715 353.939ZM621.41 364.546C623.872 365.484 626.442 365.51 628.911 364.522L625.94 357.094C625.423 357.301 624.932 357.327 624.258 357.07L621.41 364.546ZM628.85 364.546C631.319 363.605 633.244 361.91 634.515 359.6L627.505 355.744C627.133 356.421 626.668 356.816 626.002 357.07L628.85 364.546ZM634.561 359.512C637.823 353.217 641.037 346.37 644.206 338.976L636.853 335.824C633.75 343.064 630.618 349.732 627.458 355.832L634.561 359.512ZM644.207 338.974C654.06 315.96 662.296 292.418 668.915 268.349L661.201 266.227C654.679 289.945 646.563 313.144 636.853 335.826L644.207 338.974ZM668.912 268.359C668.923 268.319 668.844 268.606 668.493 268.884C668.147 269.158 667.871 269.159 667.956 269.154L667.536 261.166C666.201 261.236 664.768 261.629 663.527 262.612C662.279 263.599 661.566 264.913 661.204 266.217L668.912 268.359ZM668.165 269.138C668.22 269.132 667.881 269.173 667.441 268.903C667.007 268.635 666.9 268.324 666.93 268.402L674.386 265.502C673.893 264.236 673.039 262.954 671.634 262.089C670.224 261.222 668.69 261.039 667.327 261.182L668.165 269.138ZM666.93 268.402C666.928 268.396 666.946 268.444 666.978 268.564C667.008 268.68 667.045 268.84 667.085 269.05C667.166 269.474 667.247 270.039 667.324 270.761C667.477 272.208 667.594 274.141 667.668 276.591L675.664 276.353C675.588 273.8 675.462 271.645 675.28 269.919C675.108 268.3 674.855 266.709 674.386 265.502L666.93 268.402ZM667.67 276.654C667.89 281.491 668.039 290.525 668.114 303.822L676.114 303.778C676.039 290.494 675.89 281.309 675.662 276.29L667.67 276.654ZM668.114 303.827C668.338 336.547 669.048 360.781 670.254 376.459L678.23 375.845C677.047 360.462 676.338 336.461 676.114 303.773L668.114 303.827ZM670.248 376.374C670.367 378.526 671.106 380.508 672.44 382.207L678.731 377.265C678.423 376.873 678.265 376.466 678.236 375.93L670.248 376.374ZM672.532 382.32C673.839 383.864 675.493 384.966 677.39 385.636L680.053 378.092C679.412 377.866 678.975 377.549 678.639 377.152L672.532 382.32ZM677.253 385.585C686.13 389.089 695.326 391.232 704.827 392.011L705.481 384.037C696.763 383.323 688.337 381.359 680.19 378.143L677.253 385.585ZM705.154 392.024C704.976 392.024 704.777 391.985 704.593 391.903C704.419 391.826 704.339 391.746 704.341 391.748L709.998 386.092C708.758 384.851 707.104 384.024 705.154 384.024V392.024ZM704.536 391.93C704.433 391.84 704.291 391.676 704.187 391.441C704.083 391.208 704.066 391.019 704.066 390.936H712.066C712.066 389.007 711.303 387.222 709.804 385.91L704.536 391.93ZM704.086 391.334C704.063 391.106 704.091 390.826 704.198 390.55C704.3 390.288 704.426 390.151 704.453 390.124L710.11 395.78C711.435 394.455 712.256 392.638 712.046 390.538L704.086 391.334ZM704.271 390.318C704.362 390.215 704.526 390.074 704.761 389.969C704.993 389.866 705.182 389.848 705.266 389.848V397.848C707.195 397.848 708.98 397.085 710.292 395.586L704.271 390.318ZM705.447 389.852C697.657 389.498 690.121 387.941 682.826 385.179L679.993 392.661C688.079 395.723 696.448 397.451 705.084 397.844L705.447 389.852ZM682.614 385.106C679.759 384.204 677.016 384.915 674.856 386.806L680.124 392.826C680.222 392.74 680.282 392.705 680.3 392.696C680.316 392.687 680.3 392.698 680.257 392.707C680.237 392.712 680.216 392.715 680.195 392.717C680.175 392.719 680.158 392.719 680.148 392.718C680.125 392.717 680.142 392.714 680.205 392.734L682.614 385.106ZM674.87 386.793C672.691 388.681 671.767 391.288 672.19 394.105L680.102 392.919C680.087 392.819 680.09 392.772 680.09 392.769C680.09 392.767 680.09 392.773 680.087 392.786C680.084 392.799 680.08 392.816 680.073 392.835C680.066 392.854 680.058 392.871 680.05 392.886C680.043 392.901 680.037 392.91 680.034 392.913C680.029 392.92 680.047 392.893 680.109 392.839L674.87 386.793ZM672.203 394.189C672.855 397.982 673.607 401.13 674.506 403.5C674.955 404.683 675.496 405.819 676.176 406.782C676.834 407.714 677.844 408.795 679.333 409.353L682.142 401.863C682.736 402.085 682.882 402.41 682.71 402.166C682.559 401.953 682.302 401.493 681.985 400.66C681.354 398.998 680.706 396.434 680.088 392.835L672.203 394.189ZM679.252 409.322C679.189 409.297 679.088 409.242 678.988 409.148C678.89 409.057 678.847 408.979 678.84 408.965L685.995 405.387C685.202 403.801 683.917 402.572 682.223 401.894L679.252 409.322ZM678.921 409.119C678.837 408.967 678.747 408.724 678.731 408.422C678.716 408.126 678.778 407.912 678.816 407.818L686.244 410.79C686.965 408.985 686.902 407.012 685.914 405.233L678.921 409.119ZM678.698 408.155C678.74 408.015 678.828 407.834 678.975 407.664C679.118 407.5 679.247 407.425 679.285 407.406L682.863 414.562C684.518 413.734 685.796 412.337 686.361 410.453L678.698 408.155ZM679.131 407.487C679.229 407.433 679.398 407.365 679.619 407.342C679.839 407.319 680.008 407.351 680.095 407.377L677.796 415.039C679.56 415.568 681.386 415.386 683.016 414.481L679.131 407.487ZM680.191 407.407C679.759 407.265 678.508 406.458 677.074 402.968C675.712 399.653 674.527 394.736 673.613 388.043L665.687 389.125C666.639 396.096 667.937 401.782 669.674 406.008C671.339 410.06 673.802 413.732 677.701 415.009L680.191 407.407ZM673.607 388.002C673.331 386.122 672.631 384.347 671.39 382.844C670.151 381.346 668.543 380.321 666.761 379.673L664.027 387.191C664.708 387.439 665.041 387.721 665.222 387.94C665.399 388.154 665.595 388.508 665.692 389.166L673.607 388.002ZM666.788 379.683C660.991 377.527 652.911 374.437 642.538 370.407L639.641 377.865C650.026 381.899 658.149 385.006 664 387.181L666.788 379.683ZM642.06 370.255C641.37 370.083 640.438 369.882 639.298 369.654L637.729 377.498C638.83 377.718 639.615 377.89 640.12 378.017L642.06 370.255ZM639.544 369.711C638.433 369.415 637.479 369.18 636.819 369.07L635.504 376.962C635.741 377.001 636.355 377.14 637.483 377.441L639.544 369.711ZM636.819 369.07C636.204 368.968 635.399 368.883 634.478 368.806L633.814 376.778C634.684 376.851 635.223 376.915 635.504 376.962L636.819 369.07ZM634.861 368.857C633.816 368.666 632.382 368.529 630.977 368.997L633.507 376.587C633.352 376.638 633.231 376.661 633.159 376.67C633.087 376.68 633.049 376.68 633.054 376.68C633.057 376.68 633.09 376.68 633.157 376.687C633.223 376.694 633.313 376.706 633.43 376.727L634.861 368.857ZM631.457 368.87C630.703 369.021 629.857 369.326 629.076 369.638L632.047 377.066C632.372 376.936 632.622 376.844 632.807 376.783C633.005 376.717 633.065 376.707 633.026 376.714L631.457 368.87ZM629.297 369.557C628.01 369.986 626.883 370.701 625.941 371.644L631.598 377.3C631.701 377.197 631.77 377.166 631.827 377.147L629.297 369.557ZM625.941 371.644C625.358 372.227 624.702 372.977 623.994 373.843L630.186 378.909C630.821 378.132 631.286 377.613 631.598 377.3L625.941 371.644ZM623.966 373.877C623.211 374.821 622.5 375.898 621.825 377.079L628.771 381.049C629.29 380.14 629.774 379.424 630.213 378.875L623.966 373.877ZM506.578 330.824C502.713 330.824 499.311 331.183 496.513 332.032C493.726 332.877 491.154 334.33 489.558 336.791L496.27 341.145C496.465 340.843 497.067 340.224 498.835 339.688C500.591 339.155 503.125 338.824 506.578 338.824V330.824ZM489.555 336.795C488.045 339.129 487.784 341.827 488.209 344.451C488.627 347.033 489.739 349.79 491.312 352.654L498.324 348.802C496.985 346.365 496.323 344.51 496.106 343.173C495.897 341.877 496.14 341.346 496.272 341.141L489.555 336.795ZM491.297 352.627C494.633 358.81 499.958 365.266 507.077 372.001L512.575 366.191C505.806 359.785 501.125 353.995 498.338 348.829L491.297 352.627ZM507.093 372.017C514.205 378.67 521.959 384.78 530.35 390.349L534.774 383.683C526.738 378.351 519.335 372.514 512.558 366.175L507.093 372.017ZM530.385 390.372C538.888 395.887 547.816 400.524 557.167 404.28L560.149 396.856C551.28 393.294 542.811 388.897 534.739 383.66L530.385 390.372ZM557.193 404.29C566.592 407.988 575.132 409.944 582.738 409.944V401.944C576.455 401.944 568.942 400.316 560.122 396.846L557.193 404.29ZM582.738 409.944C590.084 409.944 597.22 406.838 604.077 401.264C610.915 395.705 617.68 387.536 624.416 376.956L617.668 372.66C611.188 382.837 604.96 390.236 599.031 395.056C593.12 399.861 587.711 401.944 582.738 401.944V409.944ZM624.392 376.993C626.189 374.238 626.569 371.118 625.494 368.012L617.934 370.628C618.202 371.404 618.134 371.944 617.691 372.623L624.392 376.993ZM625.549 368.184C624.603 364.992 622.457 362.641 619.342 361.443L616.47 368.909C617.237 369.204 617.63 369.616 617.879 370.456L625.549 368.184ZM619.337 361.441C597.244 352.978 577.363 346.075 559.703 340.739L557.389 348.397C574.821 353.664 594.514 360.499 616.475 368.911L619.337 361.441ZM559.703 340.739C541.961 335.379 525.987 332.132 511.808 331.059L511.204 339.037C524.652 340.054 540.037 343.155 557.389 348.397L559.703 340.739ZM511.852 331.063C510.031 330.905 508.272 330.824 506.578 330.824V338.824C508.019 338.824 509.546 338.893 511.159 339.033L511.852 331.063ZM660.121 290.731C652.277 315.742 642.288 339.865 630.152 363.1L637.243 366.804C649.598 343.149 659.769 318.588 667.754 293.125L660.121 290.731ZM632.212 368.666L636.692 370.458L639.663 363.03L635.183 361.238L632.212 368.666ZM636.729 370.473C647.109 374.505 654.638 377.389 659.299 379.118L662.081 371.618C657.483 369.912 650.003 367.047 639.626 363.015L636.729 370.473ZM659.285 379.113C662.335 380.257 665.412 379.839 668.055 377.951L663.405 371.441C662.912 371.793 662.629 371.823 662.094 371.623L659.285 379.113ZM668.154 377.878C670.785 375.873 672.101 373 671.846 369.685L663.87 370.299C663.913 370.867 663.811 371.13 663.306 371.514L668.154 377.878ZM671.85 369.744C670.961 355.447 670.402 333.474 670.178 303.77L662.178 303.83C662.402 333.561 662.962 355.715 663.865 370.24L671.85 369.744ZM670.178 303.8C670.178 298.642 670.141 294.819 670.064 292.363L662.068 292.613C662.14 294.936 662.178 298.654 662.178 303.8H670.178ZM670.066 292.488C670.066 291.349 669.89 289.633 668.741 288.197L662.494 293.195C662.197 292.823 662.099 292.499 662.073 292.394C662.047 292.29 662.066 292.303 662.066 292.488H670.066ZM669.048 288.638C668.618 287.923 667.737 286.865 666.196 286.479C664.654 286.094 663.379 286.613 662.664 287.042L666.78 293.902C666.438 294.107 665.498 294.551 664.256 294.241C663.013 293.93 662.393 293.096 662.188 292.754L669.048 288.638ZM662.933 286.894C661.706 287.508 661.071 288.512 660.78 289.052C660.45 289.665 660.232 290.312 660.079 290.876L667.797 292.98C667.867 292.723 667.893 292.716 667.824 292.844C667.785 292.916 667.687 293.087 667.504 293.293C667.321 293.5 667 293.805 666.511 294.05L662.933 286.894ZM810.656 383.544L807.646 386.178L807.733 386.278L807.828 386.372L810.656 383.544ZM810.656 387.688L813.44 390.56L813.462 390.539L813.484 390.516L810.656 387.688ZM783.888 403.928L785.216 407.701L785.228 407.697L785.24 407.693L783.888 403.928ZM754.768 409.528V405.528H754.663L754.558 405.534L754.768 409.528ZM742.448 407.176L740.48 410.658L740.635 410.746L740.798 410.82L742.448 407.176ZM738.304 403.928L735.294 406.562L738.304 403.928ZM736.288 400.12L732.374 400.944L732.378 400.966L732.383 400.988L736.288 400.12ZM735.728 396.312H731.728V396.445L731.737 396.578L735.728 396.312ZM736.512 392.504L740.265 393.887L740.277 393.856L740.287 393.825L736.512 392.504ZM737.744 389.144L734.103 387.489L734.064 387.573L734.03 387.658L737.744 389.144ZM739.2 386.12L735.622 384.331V384.331L739.2 386.12ZM738.64 385.336L739.136 381.367L738.889 381.336H738.64V385.336ZM737.408 385.784L739.323 389.296L739.358 389.277L739.393 389.257L737.408 385.784ZM724.192 388.808L724.382 384.813L724.216 384.805L724.049 384.811L724.192 388.808ZM718.032 387.576L719.657 383.921L718.302 383.319L716.883 383.745L718.032 387.576ZM715.792 387.352L717.581 383.774L715.792 387.352ZM714.224 384.44L718.2 384.882L718.388 383.188L717.297 381.879L714.224 384.44ZM711.872 379.848L715.742 378.838L715.728 378.781L715.711 378.724L711.872 379.848ZM712.096 370.776L715.871 372.097L712.096 370.776ZM717.584 363.384L715.538 359.947L715.363 360.051L715.199 360.173L717.584 363.384ZM724.976 363.16L722.208 366.048L722.223 366.062L722.237 366.075L724.976 363.16ZM722.512 380.52L718.856 378.898L718.826 378.966L718.798 379.034L722.512 380.52ZM722.848 382.088L719.351 384.031L719.401 384.121L719.456 384.208L722.848 382.088ZM736.4 379.736L738.377 383.213L738.418 383.19L738.458 383.166L736.4 379.736ZM739.088 378.392L740.353 382.187L740.536 382.126L740.713 382.047L739.088 378.392ZM741.776 378.056L741.51 382.047L741.643 382.056H741.776V378.056ZM744.912 379.176L747.351 376.006H747.351L744.912 379.176ZM746.48 382.088L750.472 381.838V381.838L746.48 382.088ZM746.032 385.224L742.34 383.686L742.304 383.771L742.273 383.857L746.032 385.224ZM744.464 388.696L747.978 390.606L748.011 390.546L748.042 390.485L744.464 388.696ZM741.664 396.984H737.664V397.058L737.667 397.132L741.664 396.984ZM745.472 402.136L747.53 398.706L747.499 398.687L747.468 398.67L745.472 402.136ZM752.752 403.704L752.93 399.708L752.752 403.704ZM764.624 402.808L763.977 398.861L764.624 402.808ZM778.736 399.448L777.56 395.625L778.736 399.448ZM793.52 393.064L795.454 396.566L795.474 396.555L795.493 396.543L793.52 393.064ZM806.512 383.432L803.878 380.422L803.793 380.496L803.713 380.575L806.512 383.432ZM717.36 377.384L713.431 378.136L715.734 390.161L720.975 379.096L717.36 377.384ZM720.496 368.536L724.382 369.484L727.349 357.321L717.879 365.511L720.496 368.536ZM808.64 386.648C808.557 386.648 808.368 386.63 808.135 386.527C807.9 386.422 807.736 386.281 807.646 386.178L813.666 380.91C812.354 379.411 810.569 378.648 808.64 378.648V386.648ZM807.828 386.372C807.796 386.341 807.712 386.243 807.641 386.076C807.57 385.907 807.552 385.758 807.552 385.672H815.552C815.552 383.756 814.808 382.039 813.484 380.716L807.828 386.372ZM807.552 385.672C807.552 385.494 807.591 385.295 807.673 385.111C807.75 384.937 807.83 384.857 807.828 384.86L813.484 390.516C814.725 389.276 815.552 387.622 815.552 385.672H807.552ZM807.872 384.815C801.083 391.394 792.666 396.525 782.536 400.163L785.24 407.693C796.315 403.715 805.743 398.019 813.44 390.56L807.872 384.815ZM782.56 400.155C772.272 403.778 763.021 405.528 754.768 405.528V413.528C764.136 413.528 774.299 411.545 785.216 407.701L782.56 400.155ZM754.558 405.534C750.954 405.723 747.484 405.065 744.098 403.532L740.798 410.82C745.327 412.871 750.07 413.781 754.978 413.522L754.558 405.534ZM744.416 403.694C743 402.893 742 402.078 741.314 401.294L735.294 406.562C736.698 408.167 738.461 409.517 740.48 410.658L744.416 403.694ZM741.314 401.294C740.642 400.526 740.325 399.848 740.193 399.252L732.383 400.988C732.848 403.08 733.875 404.941 735.294 406.562L741.314 401.294ZM740.202 399.296C739.932 398.011 739.778 396.934 739.719 396.046L731.737 396.578C731.827 397.931 732.047 399.391 732.374 400.944L740.202 399.296ZM739.728 396.312C739.728 395.797 739.852 395.008 740.265 393.887L732.759 391.121C732.126 392.838 731.728 394.587 731.728 396.312H739.728ZM740.287 393.825C740.805 392.345 741.193 391.292 741.458 390.63L734.03 387.658C733.698 388.489 733.264 389.676 732.737 391.183L740.287 393.825ZM741.385 390.799C741.731 390.039 742.193 389.078 742.778 387.909L735.622 384.331C735.012 385.551 734.503 386.607 734.103 387.489L741.385 390.799ZM742.778 387.909C743.149 387.165 743.858 385.189 742.483 383.263C741.36 381.692 739.664 381.433 739.136 381.367L738.144 389.305C738.061 389.295 737.791 389.256 737.435 389.104C737.075 388.949 736.47 388.608 735.973 387.913C734.784 386.249 735.475 384.627 735.622 384.331L742.778 387.909ZM738.64 381.336C737.236 381.336 736.052 381.952 735.423 382.311L739.393 389.257C739.525 389.182 739.546 389.181 739.475 389.207C739.435 389.222 739.348 389.251 739.219 389.278C739.092 389.305 738.893 389.336 738.64 389.336V381.336ZM735.493 382.272C732.035 384.159 728.358 385.002 724.382 384.813L724.002 392.803C729.434 393.062 734.568 391.889 739.323 389.296L735.493 382.272ZM724.049 384.811C722.599 384.862 721.148 384.584 719.657 383.921L716.407 391.231C718.948 392.36 721.604 392.903 724.335 392.805L724.049 384.811ZM716.883 383.745C716.991 383.712 717.143 383.691 717.31 383.708C717.472 383.724 717.568 383.768 717.581 383.774L714.003 390.93C715.59 391.723 717.385 391.946 719.181 391.407L716.883 383.745ZM717.581 383.774C717.562 383.765 717.82 383.897 718.026 384.28C718.229 384.658 718.194 384.931 718.2 384.882L710.248 383.998C710.105 385.293 710.256 386.724 710.982 388.072C711.711 389.425 712.827 390.342 714.003 390.93L717.581 383.774ZM717.297 381.879C716.559 380.994 716.044 379.995 715.742 378.838L708.002 380.858C708.596 383.136 709.649 385.198 711.151 387.001L717.297 381.879ZM715.711 378.724C715.048 376.458 715.104 374.289 715.871 372.097L708.321 369.455C706.997 373.236 706.904 377.116 708.033 380.972L715.711 378.724ZM715.871 372.097C716.645 369.888 717.978 368.074 719.969 366.595L715.199 360.173C711.963 362.577 709.638 365.691 708.321 369.455L715.871 372.097ZM719.63 366.821C720.874 366.08 721.601 365.935 721.905 365.926C721.973 365.924 722.014 365.929 722.035 365.932C722.054 365.935 722.063 365.939 722.066 365.94C722.069 365.941 722.079 365.945 722.098 365.957C722.118 365.97 722.155 365.997 722.208 366.048L727.744 360.272C726.079 358.676 723.976 357.86 721.663 357.93C719.503 357.995 717.43 358.821 715.538 359.947L719.63 366.821ZM722.237 366.075C721.999 365.851 722.607 366.144 722.248 368.674C721.913 371.03 720.851 374.398 718.856 378.898L726.168 382.142C728.279 377.383 729.681 373.229 730.168 369.798C730.631 366.542 730.417 362.783 727.715 360.245L722.237 366.075ZM718.798 379.034C717.929 381.207 718.882 383.185 719.351 384.031L726.345 380.145C726.274 380.017 726.341 380.1 726.395 380.354C726.452 380.618 726.529 381.247 726.226 382.006L718.798 379.034ZM719.456 384.208C720.276 385.521 721.828 386.984 724.192 386.984V378.984C724.745 378.984 725.271 379.157 725.683 379.432C726.053 379.679 726.214 379.927 726.24 379.968L719.456 384.208ZM724.192 386.984C729.224 386.984 733.974 385.717 738.377 383.213L734.423 376.259C731.21 378.086 727.821 378.984 724.192 378.984V386.984ZM738.458 383.166C739.5 382.541 740.099 382.271 740.353 382.187L737.823 374.597C736.733 374.961 735.54 375.587 734.342 376.306L738.458 383.166ZM740.713 382.047C740.619 382.089 740.617 382.071 740.76 382.053C740.903 382.035 741.146 382.023 741.51 382.047L742.042 374.065C740.585 373.968 738.96 374.071 737.463 374.737L740.713 382.047ZM741.776 382.056C741.93 382.056 742.132 382.084 742.473 382.346L747.351 376.006C745.75 374.774 743.862 374.056 741.776 374.056V382.056ZM742.473 382.346C742.497 382.365 742.513 382.379 742.523 382.389C742.528 382.393 742.532 382.397 742.534 382.399C742.536 382.401 742.538 382.403 742.538 382.403C742.538 382.403 742.537 382.402 742.535 382.4C742.534 382.398 742.531 382.395 742.529 382.391C742.523 382.383 742.517 382.373 742.51 382.36C742.504 382.348 742.498 382.336 742.493 382.324C742.488 382.312 742.486 382.303 742.484 382.298C742.483 382.292 742.483 382.292 742.484 382.298C742.485 382.303 742.486 382.316 742.488 382.338L750.472 381.838C750.324 379.461 749.212 377.437 747.351 376.006L742.473 382.346ZM742.488 382.338C742.533 383.061 742.429 383.471 742.34 383.686L749.724 386.762C750.382 385.185 750.576 383.505 750.472 381.838L742.488 382.338ZM742.273 383.857C742.054 384.458 741.614 385.451 740.886 386.907L748.042 390.485C748.807 388.954 749.412 387.632 749.791 386.591L742.273 383.857ZM740.949 386.786C738.997 390.379 737.664 393.867 737.664 396.984H745.664C745.664 395.919 746.198 393.882 747.978 390.606L740.949 386.786ZM737.667 397.132C737.812 401.047 740.355 403.805 743.476 405.602L747.468 398.67C745.661 397.629 745.666 396.953 745.661 396.836L737.667 397.132ZM743.414 405.566C745.796 406.995 749.061 407.544 752.574 407.7L752.93 399.708C749.723 399.565 748.135 399.069 747.53 398.706L743.414 405.566ZM752.574 407.7C756.291 407.865 760.537 407.531 765.271 406.755L763.977 398.861C759.602 399.578 755.933 399.841 752.93 399.708L752.574 407.7ZM765.271 406.755C770.022 405.977 774.903 404.813 779.912 403.271L777.56 395.625C772.863 397.07 768.336 398.146 763.977 398.861L765.271 406.755ZM779.912 403.271C785.059 401.688 790.24 399.445 795.454 396.566L791.586 389.562C786.795 392.208 782.12 394.222 777.56 395.625L779.912 403.271ZM795.493 396.543C800.761 393.556 805.377 390.143 809.311 386.289L803.713 380.575C800.33 383.889 796.285 386.897 791.547 389.585L795.493 396.543ZM809.146 386.442C809.095 386.487 809.002 386.551 808.875 386.597C808.75 386.643 808.66 386.648 808.64 386.648V378.648C806.887 378.648 805.232 379.237 803.878 380.422L809.146 386.442ZM720.975 379.096C722.435 376.013 723.571 372.808 724.382 369.484L716.61 367.588C715.927 370.387 714.973 373.08 713.745 375.672L720.975 379.096ZM717.879 365.511C714.066 368.809 712.483 373.186 713.431 378.136L721.289 376.632C720.893 374.564 721.401 373.042 723.113 371.561L717.879 365.511ZM882.931 382.536L880.103 385.364L880.197 385.459L880.297 385.546L882.931 382.536ZM882.931 386.68L880.103 383.852L880.041 383.913L879.982 383.977L882.931 386.68ZM879.571 390.04L882.318 392.948L882.322 392.944L879.571 390.04ZM871.955 396.312L869.495 393.158L869.479 393.17L869.464 393.182L871.955 396.312ZM860.979 404.04L858.89 400.629L858.875 400.638L858.859 400.648L860.979 404.04ZM848.323 410.2L849.728 413.945L849.743 413.939L849.759 413.933L848.323 410.2ZM825.811 411.208L824.397 414.95L824.406 414.953L825.811 411.208ZM810.915 394.296L814.669 392.916L810.915 394.296ZM807.331 361.144L811.323 361.389L811.346 361.018L811.3 360.648L807.331 361.144ZM806.547 359.688L803.986 362.761V362.761L806.547 359.688ZM804.979 359.24L805.264 363.23L805.37 363.222L805.475 363.209L804.979 359.24ZM795.347 360.024L795.619 364.015L795.664 364.012L795.709 364.008L795.347 360.024ZM786.835 360.696L787.085 364.688L787.147 364.684L787.208 364.679L786.835 360.696ZM780.339 361.144L780.487 365.141L780.566 365.138L780.646 365.132L780.339 361.144ZM775.747 361.368L775.462 357.378L775.747 361.368ZM773.843 361.48V357.48H773.662L773.481 357.496L773.843 361.48ZM771.715 360.808L768.887 363.636L768.981 363.731L769.081 363.818L771.715 360.808ZM771.603 356.552L774.613 359.186V359.186L771.603 356.552ZM775.411 355.544L775.145 351.553L775.411 355.544ZM780.227 355.208L780.512 359.198L780.522 359.197L780.227 355.208ZM787.059 354.76L787.294 358.753L787.358 358.749L787.421 358.744L787.059 354.76ZM795.907 354.088L796.167 358.08L796.21 358.077L796.254 358.073L795.907 354.088ZM805.987 353.304L806.259 357.295L806.344 357.289L806.429 357.28L805.987 353.304ZM808.451 350.168L812.404 350.776L812.407 350.759L812.41 350.743L808.451 350.168ZM811.027 336.616L807.15 335.63L807.142 335.661L807.135 335.692L811.027 336.616ZM814.835 323.96L818.608 325.288V325.288L814.835 323.96ZM819.651 313.992L816.396 311.667L816.374 311.698L816.352 311.73L819.651 313.992ZM825.363 309.512L824.673 305.572L824.641 305.578L824.608 305.584L825.363 309.512ZM832.419 313.992L828.826 315.75L828.834 315.766L828.841 315.781L832.419 313.992ZM832.083 327.32L836.002 328.122L836.004 328.113L832.083 327.32ZM825.587 349.72L829.332 351.125L829.343 351.095L829.354 351.065L825.587 349.72ZM825.363 351.176L821.441 351.96L821.546 352.486L821.785 352.965L825.363 351.176ZM825.811 351.848L822.983 354.676L823.442 355.135L824.022 355.426L825.811 351.848ZM826.371 351.96V355.96H826.493L826.615 355.953L826.371 351.96ZM865.347 351.288L862.337 353.922L862.424 354.022L862.519 354.116L865.347 351.288ZM865.347 355.432L862.519 352.604L862.424 352.698L862.337 352.798L865.347 355.432ZM824.355 358.008V362.008H824.511L824.667 361.996L824.355 358.008ZM822.899 358.232L821.11 354.654L820.887 354.766L820.68 354.904L822.899 358.232ZM822.227 359.24L818.55 357.664L818.491 357.802L818.443 357.944L822.227 359.24ZM813.827 381.528L810.109 380.053L809.718 381.038L809.866 382.087L813.827 381.528ZM827.939 405.72L826.498 409.451L826.509 409.456L826.52 409.46L827.939 405.72ZM842.387 405.944L841.335 402.085L841.319 402.089L841.304 402.093L842.387 405.944ZM850.003 403.144L848.378 399.489L848.359 399.497L848.34 399.506L850.003 403.144ZM857.395 399.336L855.337 395.906L857.395 399.336ZM864.115 394.856L861.8 391.594L861.775 391.612L861.75 391.63L864.115 394.856ZM869.939 390.488L872.456 393.597L872.464 393.59L872.472 393.584L869.939 390.488ZM874.531 386.456L871.855 383.483L871.817 383.517L871.78 383.552L874.531 386.456ZM877.555 383.656L874.921 380.646L874.821 380.733L874.727 380.828L877.555 383.656ZM878.787 382.536L881.615 385.364L881.71 385.27L881.797 385.17L878.787 382.536ZM814.387 350.056L818.328 350.741L818.339 350.677L818.348 350.611L814.387 350.056ZM816.963 352.52L816.697 348.529L816.582 348.537L816.467 348.551L816.963 352.52ZM818.979 350.616L815.194 349.321L815.101 349.595L815.048 349.879L818.979 350.616ZM827.155 316.68L823.36 317.945L823.443 318.194L823.558 318.43L827.155 316.68ZM826.259 315.896L824.994 319.691L825.292 319.79L825.601 319.842L826.259 315.896ZM825.139 316.12L822.311 313.292L822.252 313.35L822.195 313.412L825.139 316.12ZM819.315 328.552L823.101 329.844L823.103 329.837L823.105 329.83L819.315 328.552ZM815.395 363.384L811.654 361.968L811.637 362.013L811.621 362.058L815.395 363.384ZM816.291 358.456L819.328 355.853L818.802 355.24L818.08 354.878L816.291 358.456ZM813.379 358.68L810.979 355.48L810.752 355.651L810.551 355.852L813.379 358.68ZM812.483 361.48L808.527 360.887L808.514 360.974L808.505 361.061L812.483 361.48ZM812.371 365.624L808.377 365.846L808.378 365.859L812.371 365.624ZM880.803 385.64C880.717 385.64 880.568 385.622 880.399 385.551C880.232 385.48 880.134 385.396 880.103 385.364L885.759 379.708C884.436 378.384 882.719 377.64 880.803 377.64V385.64ZM880.297 385.546C880.194 385.456 880.053 385.292 879.948 385.057C879.845 384.824 879.827 384.635 879.827 384.552H887.827C887.827 382.623 887.064 380.838 885.565 379.526L880.297 385.546ZM879.827 384.552C879.827 384.466 879.845 384.317 879.916 384.148C879.987 383.981 880.071 383.883 880.103 383.852L885.759 389.508C887.083 388.185 887.827 386.468 887.827 384.552H879.827ZM879.982 383.977C879.251 384.775 878.206 385.823 876.82 387.136L882.322 392.944C883.773 391.569 884.969 390.377 885.88 389.383L879.982 383.977ZM876.825 387.132C875.635 388.256 873.235 390.241 869.495 393.158L874.415 399.466C878.141 396.559 880.819 394.363 882.318 392.948L876.825 387.132ZM869.464 393.182C865.922 396.001 862.397 398.481 858.89 400.629L863.068 407.451C866.878 405.119 870.67 402.447 874.446 399.442L869.464 393.182ZM858.859 400.648C855.534 402.726 851.554 404.672 846.887 406.467L849.759 413.933C854.799 411.995 859.256 409.834 863.099 407.432L858.859 400.648ZM846.919 406.455C842.493 408.114 838.492 408.888 834.883 408.888V416.888C839.637 416.888 844.596 415.87 849.728 413.945L846.919 406.455ZM834.883 408.888C832.321 408.888 829.772 408.421 827.215 407.463L824.406 414.953C827.823 416.235 831.322 416.888 834.883 416.888V408.888ZM827.225 407.466C821.892 405.452 817.606 400.907 814.669 392.916L807.161 395.676C810.645 405.157 816.29 411.887 824.397 414.95L827.225 407.466ZM814.669 392.916C811.714 384.875 810.522 374.426 811.323 361.389L803.339 360.899C802.497 374.593 803.694 386.245 807.161 395.676L814.669 392.916ZM811.3 360.648C811.104 359.08 810.362 357.661 809.108 356.615L803.986 362.761C803.841 362.64 803.683 362.461 803.557 362.228C803.433 361.998 803.38 361.787 803.362 361.64L811.3 360.648ZM809.108 356.615C807.778 355.507 806.139 355.064 804.483 355.271L805.475 363.209C805.297 363.231 805.03 363.231 804.72 363.142C804.407 363.053 804.159 362.905 803.986 362.761L809.108 356.615ZM804.694 355.25C801.531 355.476 798.295 355.74 794.985 356.04L795.709 364.008C798.97 363.711 802.155 363.452 805.264 363.23L804.694 355.25ZM795.075 356.033C791.767 356.259 788.894 356.485 786.462 356.713L787.208 364.679C789.554 364.459 792.356 364.237 795.619 364.015L795.075 356.033ZM786.585 356.704C784.181 356.854 781.996 357.005 780.032 357.156L780.646 365.132C782.564 364.985 784.71 364.837 787.085 364.688L786.585 356.704ZM780.191 357.147C778.163 357.222 776.577 357.299 775.462 357.378L776.032 365.358C777.007 365.288 778.483 365.215 780.487 365.141L780.191 357.147ZM775.462 357.378C774.941 357.415 774.547 357.443 774.277 357.461C774.141 357.47 774.043 357.476 773.979 357.48C773.946 357.482 773.931 357.483 773.927 357.483C773.897 357.484 773.969 357.48 774.067 357.48V365.48C774.33 365.48 775.128 365.422 776.032 365.358L775.462 357.378ZM774.067 357.48H773.843V365.48H774.067V357.48ZM773.481 357.496C773.541 357.491 773.696 357.489 773.9 357.554C774.107 357.619 774.26 357.72 774.349 357.798L769.081 363.818C770.537 365.093 772.342 365.633 774.205 365.464L773.481 357.496ZM774.543 357.98C774.575 358.011 774.659 358.109 774.73 358.276C774.801 358.445 774.819 358.594 774.819 358.68H766.819C766.819 360.596 767.563 362.313 768.887 363.636L774.543 357.98ZM774.819 358.68C774.819 358.7 774.814 358.79 774.768 358.915C774.722 359.042 774.658 359.135 774.613 359.186L768.593 353.918C767.408 355.272 766.819 356.927 766.819 358.68H774.819ZM774.613 359.186C774.523 359.289 774.359 359.43 774.124 359.535C773.891 359.638 773.702 359.656 773.619 359.656V351.656C771.69 351.656 769.905 352.419 768.593 353.918L774.613 359.186ZM773.619 359.656C773.87 359.656 774.691 359.601 775.677 359.535L775.145 351.553C774.587 351.59 774.164 351.618 773.873 351.636C773.727 351.645 773.621 351.651 773.551 351.655C773.515 351.657 773.496 351.658 773.49 351.658C773.455 351.66 773.524 351.656 773.619 351.656V359.656ZM775.677 359.535C776.807 359.46 778.419 359.347 780.512 359.198L779.942 351.218C777.853 351.367 776.255 351.479 775.145 351.553L775.677 359.535ZM780.522 359.197C782.514 359.05 784.771 358.902 787.294 358.753L786.824 350.767C784.27 350.917 781.972 351.068 779.932 351.219L780.522 359.197ZM787.421 358.744C789.841 358.524 792.755 358.302 796.167 358.08L795.647 350.096C792.19 350.322 789.205 350.548 786.697 350.776L787.421 358.744ZM796.254 358.073C799.665 357.776 803 357.517 806.259 357.295L805.715 349.313C802.404 349.539 799.019 349.802 795.56 350.103L796.254 358.073ZM806.429 357.28C808.147 357.089 809.67 356.262 810.756 354.879C811.748 353.618 812.197 352.125 812.404 350.776L804.498 349.56C804.455 349.833 804.408 349.987 804.384 350.052C804.36 350.115 804.373 350.055 804.466 349.937C804.566 349.809 804.732 349.65 804.965 349.522C805.196 349.394 805.407 349.344 805.545 349.328L806.429 357.28ZM812.41 350.743C813.065 346.227 813.902 341.826 814.919 337.54L807.135 335.692C806.061 340.217 805.181 344.851 804.492 349.593L812.41 350.743ZM814.904 337.602C815.996 333.305 817.232 329.2 818.608 325.288L811.062 322.632C809.601 326.784 808.298 331.117 807.15 335.63L814.904 337.602ZM818.608 325.288C819.948 321.48 821.412 318.497 822.95 316.254L816.352 311.73C814.306 314.713 812.559 318.376 811.062 322.632L818.608 325.288ZM822.906 316.317C824.53 314.044 825.656 313.529 826.118 313.44L824.608 305.584C821.188 306.242 818.506 308.714 816.396 311.667L822.906 316.317ZM826.053 313.452C826.658 313.346 826.966 313.454 827.223 313.617C827.574 313.839 828.167 314.404 828.826 315.75L836.012 312.234C834.953 310.071 833.512 308.134 831.511 306.863C829.416 305.533 827.054 305.155 824.673 305.572L826.053 313.452ZM828.841 315.781C828.961 316.021 829.227 316.902 829.176 318.903C829.128 320.805 828.81 323.327 828.162 326.527L836.004 328.113C836.7 324.668 837.11 321.646 837.174 319.105C837.235 316.663 836.997 314.203 835.997 312.203L828.841 315.781ZM828.164 326.518C826.868 332.856 824.762 340.136 821.82 348.375L829.354 351.065C832.385 342.578 834.61 334.925 836.002 328.122L828.164 326.518ZM821.842 348.315C821.513 349.191 821.151 350.514 821.441 351.96L829.285 350.392C829.362 350.775 829.331 351.048 829.316 351.14C829.302 351.236 829.29 351.238 829.332 351.125L821.842 348.315ZM821.785 352.965C822.029 353.452 822.405 354.099 822.983 354.676L828.639 349.02C828.794 349.174 828.881 349.299 828.915 349.349C828.951 349.403 828.958 349.422 828.941 349.387L821.785 352.965ZM824.022 355.426C824.883 355.856 825.728 355.96 826.371 355.96V347.96C826.566 347.96 827.037 347.989 827.6 348.27L824.022 355.426ZM826.615 355.953C843.708 354.908 855.922 354.392 863.331 354.392V346.392C855.657 346.392 843.231 346.922 826.127 347.967L826.615 355.953ZM863.331 354.392C863.248 354.392 863.059 354.374 862.826 354.271C862.591 354.166 862.427 354.025 862.337 353.922L868.357 348.654C867.045 347.155 865.26 346.392 863.331 346.392V354.392ZM862.519 354.116C862.487 354.085 862.403 353.987 862.332 353.82C862.261 353.651 862.243 353.502 862.243 353.416H870.243C870.243 351.5 869.499 349.783 868.175 348.46L862.519 354.116ZM862.243 353.416C862.243 353.239 862.282 353.039 862.364 352.855C862.441 352.681 862.521 352.601 862.519 352.604L868.175 358.26C869.416 357.02 870.243 355.366 870.243 353.416H862.243ZM862.337 352.798C862.427 352.695 862.591 352.554 862.826 352.449C863.059 352.346 863.248 352.328 863.331 352.328V360.328C865.26 360.328 867.045 359.565 868.357 358.066L862.337 352.798ZM863.331 352.328C851.558 352.328 838.46 352.894 824.043 354.02L824.667 361.996C838.922 360.882 851.808 360.328 863.331 360.328V352.328ZM824.355 354.008C823.568 354.008 822.287 354.066 821.11 354.654L824.688 361.81C824.499 361.904 824.347 361.954 824.257 361.98C824.165 362.006 824.107 362.016 824.095 362.017C824.079 362.02 824.154 362.008 824.355 362.008V354.008ZM820.68 354.904C819.409 355.751 818.807 357.065 818.55 357.664L825.904 360.816C825.955 360.696 825.957 360.716 825.891 360.815C825.855 360.869 825.784 360.969 825.67 361.092C825.558 361.214 825.377 361.387 825.118 361.56L820.68 354.904ZM818.443 357.944C816.607 363.306 813.834 370.667 810.109 380.053L817.545 383.003C821.287 373.573 824.114 366.076 826.011 360.536L818.443 357.944ZM809.866 382.087C811.797 395.758 816.881 405.738 826.498 409.451L829.38 401.989C823.914 399.878 819.59 393.73 817.788 380.969L809.866 382.087ZM826.52 409.46C829.181 410.469 832.018 410.952 834.995 410.952V402.952C832.894 402.952 831.028 402.614 829.358 401.98L826.52 409.46ZM834.995 410.952C837.891 410.952 840.72 410.568 843.47 409.795L841.304 402.093C839.275 402.664 837.176 402.952 834.995 402.952V410.952ZM843.439 409.803C846.137 409.067 848.88 408.056 851.666 406.782L848.34 399.506C845.9 400.622 843.565 401.477 841.335 402.085L843.439 409.803ZM851.628 406.799C854.446 405.546 857.057 404.203 859.453 402.766L855.337 395.906C853.253 397.157 850.936 398.352 848.378 399.489L851.628 406.799ZM859.453 402.766C861.805 401.355 864.147 399.793 866.48 398.082L861.75 391.63C859.603 393.205 857.465 394.629 855.337 395.906L859.453 402.766ZM866.43 398.118C868.788 396.444 870.802 394.936 872.456 393.597L867.422 387.379C865.94 388.579 864.071 389.982 861.8 391.594L866.43 398.118ZM872.472 393.584C874.183 392.184 875.787 390.776 877.282 389.36L871.78 383.552C870.437 384.824 868.98 386.104 867.406 387.392L872.472 393.584ZM877.207 389.429C878.693 388.092 879.776 387.092 880.383 386.484L874.727 380.828C874.289 381.265 873.356 382.132 871.855 383.483L877.207 389.429ZM880.189 386.666C880.783 386.146 881.286 385.694 881.615 385.364L875.959 379.708C875.84 379.826 875.521 380.12 874.921 380.646L880.189 386.666ZM881.797 385.17C881.707 385.273 881.543 385.414 881.308 385.519C881.075 385.622 880.886 385.64 880.803 385.64V377.64C878.874 377.64 877.089 378.403 875.777 379.902L881.797 385.17ZM810.446 349.371C810.272 350.37 810.117 351.789 810.532 353.153C810.764 353.914 811.236 354.861 812.174 355.605C813.144 356.374 814.24 356.632 815.171 356.632V348.632C815.691 348.632 816.447 348.783 817.146 349.337C817.813 349.866 818.085 350.491 818.186 350.823C818.281 351.136 818.267 351.313 818.268 351.241C818.268 351.188 818.278 351.031 818.328 350.741L810.446 349.371ZM815.171 356.632C815.935 356.632 816.699 356.584 817.459 356.489L816.467 348.551C816.033 348.605 815.601 348.632 815.171 348.632V356.632ZM817.229 356.511C818.51 356.426 819.905 355.98 821.053 354.896C822.172 353.84 822.692 352.521 822.91 351.353L815.048 349.879C815.042 349.906 815.114 349.501 815.561 349.08C816.037 348.63 816.536 348.54 816.697 348.529L817.229 356.511ZM822.764 351.911C826.175 341.94 828.602 334.009 830.008 328.173C830.709 325.264 831.182 322.768 831.381 320.746C831.48 319.734 831.52 318.754 831.459 317.851C831.402 316.995 831.241 315.935 830.752 314.93L823.558 318.43C823.405 318.116 823.453 318.014 823.477 318.383C823.499 318.704 823.492 319.217 823.419 319.964C823.272 321.461 822.892 323.552 822.23 326.299C820.911 331.775 818.578 339.431 815.194 349.321L822.764 351.911ZM830.95 315.415C830.693 314.645 830.231 313.819 829.453 313.138C828.667 312.45 827.765 312.092 826.917 311.95L825.601 319.842C825.201 319.775 824.672 319.584 824.185 319.158C823.705 318.739 823.468 318.267 823.36 317.945L830.95 315.415ZM827.524 312.101C826.797 311.859 825.874 311.715 824.859 311.918C823.814 312.127 822.955 312.647 822.311 313.292L827.967 318.948C827.622 319.294 827.099 319.628 826.427 319.762C825.786 319.891 825.273 319.784 824.994 319.691L827.524 312.101ZM822.195 313.412C820.922 314.796 819.801 316.736 818.773 318.931C817.716 321.187 816.635 323.981 815.525 327.274L823.105 329.83C824.16 326.701 825.133 324.213 826.017 322.325C826.93 320.376 827.639 319.311 828.083 318.828L822.195 313.412ZM815.529 327.26C813.268 333.889 811.574 341.31 810.426 349.501L818.348 350.611C819.44 342.824 821.031 335.909 823.101 329.844L815.529 327.26ZM812.931 371.528C814.516 371.528 815.623 370.72 816.179 370.205C816.762 369.666 817.187 369.044 817.489 368.536C818.103 367.504 818.655 366.173 819.169 364.71L811.621 362.058C811.165 363.357 810.82 364.099 810.613 364.448C810.504 364.63 810.537 364.527 810.747 364.333C810.93 364.163 811.682 363.528 812.931 363.528V371.528ZM819.136 364.8C819.69 363.336 820.125 361.971 820.338 360.796C820.444 360.213 820.528 359.512 820.478 358.783C820.431 358.114 820.24 356.917 819.328 355.853L813.254 361.059C812.899 360.645 812.715 360.233 812.621 359.943C812.527 359.657 812.504 359.437 812.496 359.333C812.484 359.146 812.511 359.125 812.468 359.364C812.382 359.832 812.145 360.67 811.654 361.968L819.136 364.8ZM818.08 354.878C817.039 354.358 815.813 354.029 814.472 354.132C813.12 354.236 811.942 354.758 810.979 355.48L815.779 361.88C815.712 361.93 815.468 362.079 815.086 362.108C814.715 362.137 814.497 362.031 814.502 362.034L818.08 354.878ZM810.551 355.852C809.674 356.728 809.27 357.803 809.065 358.441C808.826 359.19 808.656 360.028 808.527 360.887L816.439 362.073C816.485 361.766 816.531 361.513 816.575 361.307C816.62 361.099 816.658 360.961 816.685 360.879C816.713 360.791 816.714 360.809 816.67 360.894C816.647 360.94 816.603 361.02 816.533 361.12C816.465 361.22 816.359 361.357 816.207 361.508L810.551 355.852ZM808.505 361.061C808.335 362.68 808.29 364.276 808.377 365.846L816.365 365.402C816.303 364.284 816.333 363.117 816.461 361.899L808.505 361.061ZM808.378 365.859C808.42 366.573 808.505 367.416 808.73 368.181C808.836 368.542 809.06 369.197 809.551 369.839C810.092 370.547 811.218 371.528 812.931 371.528V363.528C814.495 363.528 815.485 364.429 815.905 364.979C816.275 365.462 816.391 365.879 816.404 365.923C816.443 366.053 816.397 365.944 816.364 365.389L808.378 365.859Z" fill="#70AD47"/>
<circle cx="329" cy="377" r="16" fill="#9B9B9B"/>
</svg>
